<?xml version="1.0" encoding="UTF-8" standalone="no"?>
<!-- Created with Inkscape (http://www.inkscape.org/) -->

<svg
   width="25.640955mm"
   height="26.915142mm"
   viewBox="0 0 25.640955 26.915142"
   version="1.1"
   id="svg5"
   xml:space="preserve"
   xmlns="http://www.w3.org/2000/svg"
   xmlns:svg="http://www.w3.org/2000/svg"><defs
     id="defs2" /><g
     id="layer1"
     transform="translate(-72.245399,-159.01331)"><g
       id="g17643"><g
         id="g4038"><rect
           style="fill:#017f40;fill-opacity:1;stroke-width:1;stroke-linecap:round"
           id="rect354"
           width="25.639551"
           height="8.1757345"
           x="72.246803"
           y="177.75272" /><rect
           style="fill:#ffcb08;fill-opacity:1;stroke-width:0.594762;stroke-linecap:round"
           id="rect2288"
           width="25.639551"
           height="2.8920963"
           x="72.245399"
           y="180.33649" /><rect
           style="fill:#dc1a25;fill-opacity:1;stroke-width:0.594762;stroke-linecap:round"
           id="rect2842"
           width="25.639551"
           height="2.8920963"
           x="72.245399"
           y="183.03607" /></g><g
         id="g4033"
         transform="matrix(0.835694,0,0,0.81900717,5.2156457,53.221391)"
         style="fill:#ffffff"><text
           xml:space="preserve"
           style="font-style:normal;font-variant:normal;font-weight:bold;font-stretch:normal;font-size:11.6417px;line-height:1.25;font-family:sans-serif;-inkscape-font-specification:'sans-serif, Bold';font-variant-ligatures:normal;font-variant-caps:normal;font-variant-numeric:normal;font-variant-east-asian:normal;fill:#ffffff;stroke-width:0.264583"
           x="81.160934"
           y="161.39783"
           id="text4011"><tspan
             id="tspan4009"
             style="font-style:normal;font-variant:normal;font-weight:bold;font-stretch:normal;font-size:11.6417px;font-family:sans-serif;-inkscape-font-specification:'sans-serif, Bold';font-variant-ligatures:normal;font-variant-caps:normal;font-variant-numeric:normal;font-variant-east-asian:normal;fill:#ffffff;stroke-width:0.264583"
             x="81.160934"
             y="161.39783">E</tspan></text><text
           xml:space="preserve"
           style="font-style:normal;font-variant:normal;font-weight:bold;font-stretch:normal;font-size:11.6417px;line-height:1.25;font-family:sans-serif;-inkscape-font-specification:'sans-serif, Bold';font-variant-ligatures:normal;font-variant-caps:normal;font-variant-numeric:normal;font-variant-east-asian:normal;fill:#ffffff;stroke-width:0.264583"
           x="88.091721"
           y="161.24435"
           id="text4015"><tspan
             id="tspan4013"
             style="font-style:normal;font-variant:normal;font-weight:bold;font-stretch:normal;font-size:11.6417px;font-family:sans-serif;-inkscape-font-specification:'sans-serif, Bold';font-variant-ligatures:normal;font-variant-caps:normal;font-variant-numeric:normal;font-variant-east-asian:normal;fill:#ffffff;stroke-width:0.264583"
             x="88.091721"
             y="161.24435">S</tspan></text><text
           xml:space="preserve"
           style="font-style:normal;font-variant:normal;font-weight:bold;font-stretch:normal;font-size:11.6417px;line-height:1.25;font-family:sans-serif;-inkscape-font-specification:'sans-serif, Bold';font-variant-ligatures:normal;font-variant-caps:normal;font-variant-numeric:normal;font-variant-east-asian:normal;fill:#ffffff;stroke-width:0.264583"
           x="95.233467"
           y="161.39783"
           id="text4019"><tspan
             id="tspan4017"
             style="font-style:normal;font-variant:normal;font-weight:bold;font-stretch:normal;font-size:11.6417px;font-family:sans-serif;-inkscape-font-specification:'sans-serif, Bold';font-variant-ligatures:normal;font-variant-caps:normal;font-variant-numeric:normal;font-variant-east-asian:normal;fill:#ffffff;stroke-width:0.264583"
             x="95.233467"
             y="161.39783">A</tspan></text><text
           xml:space="preserve"
           style="font-style:normal;font-variant:normal;font-weight:bold;font-stretch:normal;font-size:11.6417px;line-height:1.25;font-family:sans-serif;-inkscape-font-specification:'sans-serif, Bold';font-variant-ligatures:normal;font-variant-caps:normal;font-variant-numeric:normal;font-variant-east-asian:normal;fill:#ffffff;stroke-width:0.264583"
           x="102.28626"
           y="161.39783"
           id="text4023"><tspan
             id="tspan4021"
             style="font-style:normal;font-variant:normal;font-weight:bold;font-stretch:normal;font-size:11.6417px;font-family:sans-serif;-inkscape-font-specification:'sans-serif, Bold';font-variant-ligatures:normal;font-variant-caps:normal;font-variant-numeric:normal;font-variant-east-asian:normal;fill:#ffffff;stroke-width:0.264583"
             x="102.28626"
             y="161.39783">T</tspan></text></g><path
         style="opacity:1;fill:#e4b423;fill-opacity:1;stroke:none;stroke-width:0.264583px;stroke-linecap:butt;stroke-linejoin:miter;stroke-opacity:1"
         d="m 78.922645,177.75723 c -0.807395,0 -2.422725,0 -4.037785,0 -0.07717,-0.0882 -0.154091,-0.1761 -0.179036,-0.29741 -0.02495,-0.1213 0.0026,-0.27564 0.09634,-0.45763 0.09371,-0.18199 0.253564,-0.39145 0.482344,-0.63125 0.228781,-0.23981 0.526432,-0.5099 0.895761,-0.82135 0.369329,-0.31144 0.810294,-0.66422 1.190644,-0.95086 0.380349,-0.28664 0.700052,-0.50712 1.091425,-0.76069 0.391374,-0.25356 0.854394,-0.54019 1.190642,-0.74138 0.336248,-0.2012 0.54571,-0.31695 0.688396,-0.40021 0.142686,-0.0832 0.218692,-0.13406 0.266378,-0.19637 0.04769,-0.0623 0.06718,-0.13635 0.05179,-0.18316 -0.01539,-0.0468 -0.06606,-0.0663 -0.194747,-0.0547 -0.128686,0.0116 -0.335262,0.0545 -0.551556,0.0759 -0.216294,0.0215 -0.442354,0.0215 -0.724921,-0.006 -0.282568,-0.0273 -0.621659,-0.0818 -0.980242,-0.21234 -0.358584,-0.13051 -0.736652,-0.33708 -1.073809,-0.53391 -0.337157,-0.19682 -0.633366,-0.3839 -0.91872,-0.5967 -0.285354,-0.2128 -0.559792,-0.45134 -0.834838,-0.72219 -0.275047,-0.27085 -0.550647,-0.57401 -0.804233,-0.8937 -0.253586,-0.3197 -0.485088,-0.65593 -0.68081,-1.01146 -0.195721,-0.35553 -0.355572,-0.73035 -0.454843,-1.10244 -0.09927,-0.37209 -0.137854,-0.7414 -0.162674,-1.13001 -0.02482,-0.38862 -0.03585,-0.79651 -0.0276,-1.15207 0.0083,-0.35555 0.03582,-0.65872 0.06612,-0.87234 0.0303,-0.21362 0.06342,-0.33783 0.09649,-0.46185 0.170877,0.64492 0.341835,1.29015 0.500344,1.76696 0.15851,0.4768 0.30458,0.78548 0.516776,1.1245 0.212197,0.33901 0.490438,0.70837 0.816662,1.10352 0.326225,0.39515 0.700398,0.8161 1.095976,1.21018 0.395578,0.39408 0.812503,0.76131 1.269036,1.11165 0.456533,0.35034 0.952616,0.68382 1.482774,0.97374 0.530157,0.28992 1.094328,0.53633 1.602472,0.67506 0.508145,0.13874 0.960277,0.1699 1.494254,0.18353 0.533977,0.0136 1.149807,0.01 1.677947,0.008 0.528139,-0.002 0.968299,-0.002 1.408739,-0.002 -1.055603,0.56415 -2.111111,1.12825 -2.829121,1.5702 -0.71801,0.44194 -1.098339,0.76164 -1.434585,1.04828 -0.336247,0.28664 -0.628377,0.54019 -0.8544,0.76621 -0.226022,0.22603 -0.385871,0.42446 -0.54206,0.64116 -0.156189,0.21669 -0.308684,0.4516 -0.391742,0.64418 -0.08306,0.19258 -0.09669,0.34263 -0.07712,0.47812 0.01958,0.13549 0.07205,0.25599 0.124673,0.37682 0.157857,0.0779 0.316032,0.15606 0.410529,0.21168 0.0945,0.0556 0.125616,0.0887 0.137124,0.11601 0.01151,0.0273 0.0038,0.0486 -0.01462,0.0652 -0.0184,0.0167 -0.04751,0.0288 -0.06213,0.0348 -0.01463,0.006 -0.01464,0.006 -0.822032,0.006 z"
         id="path4094" /><path
         style="opacity:1;fill:#e4b423;fill-opacity:1;stroke:none;stroke-width:0.264583px;stroke-linecap:butt;stroke-linejoin:miter;stroke-opacity:1"
         d="m 82.245001,173.46564 c 0.70548,-0.0156 1.411223,-0.0312 1.943234,-0.0721 0.532011,-0.041 0.890591,-0.10721 1.327157,-0.15007 0.436567,-0.0429 0.951047,-0.0624 1.3428,-0.008 0.391753,0.0546 0.660691,0.18327 0.89259,0.32363 0.231899,0.14035 0.42678,0.29236 0.625509,0.53991 0.19873,0.24755 0.401407,0.59054 0.533871,0.89845 0.132463,0.30792 0.194827,0.58075 0.249387,0.84579 0.05456,0.26504 0.101334,0.52229 0.183267,0.73276 0.08193,0.21048 0.198857,0.37417 0.300211,0.50278 0.101354,0.12861 0.18711,0.22216 0.235797,0.28068 0.04869,0.0585 0.06021,0.0815 0.07191,0.10495 0,0 2.63093,0 2.63093,0 0.08575,-0.0663 0.171537,-0.13255 0.272893,-0.20271 0.101357,-0.0702 0.218284,-0.14423 0.380067,-0.22803 0.161784,-0.0838 0.368354,-0.17735 0.55549,-0.23776 0.187135,-0.0604 0.354726,-0.0877 0.578876,-0.10525 0.224149,-0.0175 0.504765,-0.0253 0.834125,-0.0351 0.329359,-0.01 0.707419,-0.0214 1.023142,-0.0234 0.315723,-0.002 0.569076,0.006 0.697579,0.0216 0.128503,0.0157 0.132406,0.0391 0.116782,0.08 -0.01562,0.0408 -0.05072,0.0993 -0.122734,0.15188 -0.07201,0.0525 -0.181163,0.0993 -0.251404,0.16178 -0.07024,0.0624 -0.101418,0.14043 -0.103265,0.2126 -0.0018,0.0722 0.02546,0.13846 0.0547,0.20666 0.02923,0.0682 0.06042,0.1384 0.08968,0.18707 0.02926,0.0487 0.05656,0.076 0.05265,0.0953 -0.0039,0.0194 -0.03901,0.0311 -0.120799,0.037 -0.08179,0.006 -0.210679,0.006 -0.339302,0.006 0,0 -10.2548,0 -10.2548,0 -0.124727,-0.12862 -0.249192,-0.25698 -0.356444,-0.42651 -0.107252,-0.16953 -0.196894,-0.38 -0.235941,-0.5983 -0.03905,-0.21831 -0.02735,-0.44437 -0.03706,-0.7016 -0.0097,-0.25722 -0.04088,-0.54565 -0.132365,-0.78341 -0.09149,-0.23776 -0.243499,-0.42485 -0.41457,-0.59207 -0.171072,-0.16723 -0.361262,-0.31453 -0.51423,-0.42678 -0.152967,-0.11225 -0.268718,-0.18941 -0.467185,-0.2281 -0.198466,-0.0387 -0.479576,-0.0387 -0.813066,-0.0387 -0.33349,0 -0.71933,0 -0.99494,0 -0.27561,0 -0.44097,0 -0.457614,-0.0441 -0.01664,-0.0441 0.11566,-0.13232 0.244352,-0.2208 0.128693,-0.0885 0.253769,-0.17726 0.378882,-0.26606 0,0 -1.6e-4,-2e-5 -1.6e-4,-2e-5 z"
         id="path4098" /><path
         style="opacity:1;fill:#e4b423;fill-opacity:1;stroke:none;stroke-width:0.264583px;stroke-linecap:butt;stroke-linejoin:miter;stroke-opacity:1"
         d="m 74.088944,165.04666 c -0.116986,-0.43655 -0.194939,-1.00561 -0.167701,-1.43834 0.02724,-0.43273 0.159756,-0.72895 0.374197,-0.9668 0.214441,-0.23785 0.510653,-0.41713 0.869344,-0.51066 0.358692,-0.0935 0.779622,-0.10132 1.157722,-0.0623 0.378099,0.039 0.713304,0.12477 1.040711,0.24954 0.327407,0.12477 0.647016,0.28847 0.962729,0.45608 0.315714,0.1676 0.627527,0.3391 1.035084,0.62815 0.407557,0.28906 0.910866,0.6956 1.374679,1.12437 0.463813,0.42877 0.888127,0.8797 1.232789,1.30787 0.344662,0.42817 0.609697,0.83351 0.851341,1.24278 0.241645,0.40927 0.45991,0.82242 0.615775,1.20439 0.155866,0.38198 0.249409,0.73277 0.284431,1.10691 0.03502,0.37415 0.01162,0.7717 -0.05077,1.08736 -0.06239,0.31566 -0.163726,0.54951 -0.374099,0.72092 -0.210374,0.17141 -0.529974,0.28054 -0.96256,0.31566 -0.432587,0.0351 -0.978248,-0.004 -1.461548,-0.11294 -0.4833,-0.10908 -0.904241,-0.28837 -1.399257,-0.56897 -0.495017,-0.2806 -1.064069,-0.66257 -1.570786,-1.05621 -0.506716,-0.39365 -0.951044,-0.799 -1.395398,-1.25112 -0.444353,-0.45212 -0.88868,-0.95102 -1.220009,-1.36416 -0.331329,-0.41315 -0.549592,-0.74055 -0.736695,-1.05625 -0.187104,-0.31571 -0.342995,-0.61972 -0.45998,-1.05627 z"
         id="path4102" /><path
         style="opacity:1;fill:#ffd014;fill-opacity:0.976471;stroke:none;stroke-width:0.264583px;stroke-linecap:butt;stroke-linejoin:miter;stroke-opacity:1"
         d="m 80.135242,164.16154 c 0,-0.0936 0,-0.28098 0.05647,-0.5043 0.05647,-0.22331 0.169474,-0.48238 0.315591,-0.68503 0.146117,-0.20264 0.325258,-0.34871 0.556821,-0.47964 0.231564,-0.13093 0.515433,-0.24668 0.81314,-0.32522 0.297708,-0.0785 0.609132,-0.11988 0.935749,-0.14605 0.326617,-0.0262 0.668366,-0.0372 0.99497,-0.04 0.326604,-0.003 0.63803,0.003 0.986681,0.008 0.348651,0.005 0.734488,0.011 1.077612,0.001 0.343124,-0.01 0.643526,-0.0345 0.883269,-0.0772 0.239744,-0.0427 0.418875,-0.10336 0.58835,-0.18054 0.169475,-0.0772 0.329301,-0.17086 0.476715,-0.28109 0.147415,-0.11022 0.282463,-0.237 0.418865,-0.3982 0.136401,-0.1612 0.274201,-0.35688 0.370658,-0.54011 0.09646,-0.18323 0.151577,-0.35409 0.166901,-0.44916 0.01532,-0.0951 -0.0094,-0.11432 -0.04677,-0.10069 -0.03735,0.0136 -0.08703,0.0606 -0.16146,0.16393 -0.07443,0.10339 -0.173632,0.26322 -0.319663,0.41475 -0.14603,0.15153 -0.338949,0.29484 -0.541449,0.38855 -0.2025,0.0937 -0.414711,0.13779 -0.69442,0.15986 -0.279709,0.0221 -0.626969,0.0221 -0.919104,0.0111 -0.292136,-0.011 -0.529153,-0.033 -1.010111,-0.0413 -0.480958,-0.008 -1.205786,-0.003 -1.758402,0.0275 -0.552617,0.0303 -0.932945,0.0854 -1.27197,0.15844 -0.339025,0.073 -0.636687,0.16398 -0.941293,0.31695 -0.304606,0.15297 -0.616037,0.36794 -0.82004,0.56093 -0.204003,0.19299 -0.30046,0.36386 -0.355554,0.58995 -0.05509,0.22608 -0.06886,0.5072 -0.06332,0.75389 0.0055,0.24669 0.03034,0.4589 0.06212,0.59257 0.03178,0.13367 0.07036,0.18878 0.104768,0.20791 0.03441,0.0191 0.06471,0.003 0.07984,-0.006 0.01513,-0.008 0.01503,-0.008 0.01503,-0.10173 z"
         id="path4212" /><path
         style="opacity:1;fill:#31aa6d;fill-opacity:0.670588;stroke:none;stroke-width:0.264583px;stroke-linecap:butt;stroke-linejoin:miter;stroke-opacity:1"
         d="m 81.588,160.59773 c 0.05376,-0.0414 0.161254,-0.12405 0.325303,-0.19985 0.164048,-0.0758 0.384539,-0.14471 0.680873,-0.17361 0.296334,-0.0289 0.668393,-0.0179 1.051497,-0.008 0.383104,0.01 0.777204,0.0179 1.136857,0.006 0.359652,-0.0124 0.684866,-0.0455 0.967336,-0.10199 0.282471,-0.0565 0.52223,-0.13644 0.706826,-0.22875 0.184595,-0.0923 0.314127,-0.19705 0.41331,-0.31275 0.09918,-0.1157 0.168078,-0.24247 0.187458,-0.35259 0.01938,-0.11012 -0.01093,-0.20387 -0.08673,-0.21231 -0.07579,-0.008 -0.197076,0.0687 -0.348681,0.18175 -0.151605,0.113 -0.333501,0.26183 -0.531832,0.34451 -0.198332,0.0827 -0.413299,0.0992 -0.732997,0.10336 -0.319698,0.004 -0.744129,-0.004 -1.110701,-0.004 -0.366572,-1e-5 -0.675229,0.008 -0.966007,0.022 -0.290777,0.0138 -0.56362,0.0331 -0.777303,0.0841 -0.213683,0.051 -0.368001,0.13365 -0.523736,0.22186 -0.155734,0.0882 -0.312809,0.18189 -0.401064,0.29503 -0.08825,0.11313 -0.107554,0.24542 -0.103288,0.31146 0.0043,0.066 0.03187,0.066 0.04552,0.066 0.01365,0 0.0136,-4e-5 0.06736,-0.0414 z"
         id="path4216" /><g
         id="g17562"
         transform="translate(-25.345892,-3.2418342)"><g
           id="g14571"
           transform="translate(25.57809,3.1752362)"><path
             style="opacity:1;fill:#ffffff;fill-opacity:1;stroke:none;stroke-width:0.0110485;stroke-linecap:round"
             d="m 79.326512,166.95638 c -0.37863,-0.36272 -0.78412,-0.7511 -0.90109,-0.86307 -0.11696,-0.11197 -0.21233,-0.20454 -0.21193,-0.20573 5.3e-4,-0.002 1.23298,-0.86765 1.3557,-0.95263 l 0.0249,-0.0172 0.22601,8e-4 0.22601,7.9e-4 -0.71221,0.49969 -0.71221,0.4997 0.0213,0.0211 c 0.0913,0.0905 1.3136,1.25765 1.31519,1.25595 0.001,-0.001 0.29764,-0.51423 0.65892,-1.14007 l 0.65687,-1.13788 h 0.15024 c 0.0826,0 0.15024,5.3e-4 0.15024,0.001 0,10e-4 -0.062,0.10851 -0.55244,0.95783 -0.24433,0.42313 -0.35232,0.61016 -0.79536,1.37757 -0.11486,0.19896 -0.20949,0.36174 -0.2103,0.36173 -7.9e-4,0 -0.31125,-0.29678 -0.68989,-0.6595 z"
             id="path10283" /><path
             style="opacity:1;fill:#ffffff;fill-opacity:1;stroke:none;stroke-width:0.0312499;stroke-linecap:round"
             d="m 79.594105,164.93515 c 0,-0.002 0.224174,-0.16078 0.498163,-0.35288 1.007708,-0.70653 2.080694,-1.45939 2.198344,-1.54247 0.06652,-0.047 0.123743,-0.0854 0.127153,-0.0854 0.0064,0 0.03426,0.024 0.130522,0.11251 l 0.05617,0.0516 -0.419266,0.72614 c -0.230598,0.39938 -0.466575,0.80799 -0.524394,0.90804 l -0.105127,0.1819 -0.14569,0.002 c -0.08013,0.001 -0.14569,1.4e-4 -0.14569,-0.002 0,-0.003 0.182253,-0.32033 0.405005,-0.70609 0.222753,-0.38576 0.407681,-0.70835 0.410949,-0.71687 0.0076,-0.0199 0.128592,-0.10326 -1.043329,0.71922 l -1.008724,0.70796 -0.217041,4e-5 c -0.119374,3e-5 -0.217043,-0.002 -0.217043,-0.004 z"
             id="path10285" /></g><path
           style="fill:#e4b423;fill-opacity:1;stroke:none;stroke-width:0.241463px;stroke-linecap:butt;stroke-linejoin:miter;stroke-opacity:1"
           d="m 104.17421,169.08497 c 0,0 3.57054,-2.50809 3.57054,-2.50809 0,0 -2.18095,3.90388 -2.18095,3.90388 0,0 -1.38959,-1.39579 -1.38959,-1.39579 z"
           id="path14579" /></g><path
         style="opacity:1;fill:#e71f28;fill-opacity:1;stroke:none;stroke-width:0.264583px;stroke-linecap:butt;stroke-linejoin:miter;stroke-opacity:1"
         d="m 78.007615,166.81928 c 0.011,-0.0895 0.03304,-0.2686 0.106069,-0.43131 0.07303,-0.16271 0.197053,-0.30878 0.341775,-0.44661 0.144722,-0.13783 0.310085,-0.26737 0.493404,-0.37625 0.183318,-0.10887 0.384519,-0.19707 0.573426,-0.27179 0.188908,-0.0747 0.365484,-0.13596 0.591534,-0.17595 0.22605,-0.04 0.501462,-0.0588 0.80455,-0.064 0.303087,-0.005 0.633805,0.003 0.963151,-0.001 0.329346,-0.004 0.657304,-0.0207 1.010083,-0.0386 0.352779,-0.0179 0.730359,-0.0372 1.058325,-0.0634 0.327965,-0.0262 0.606329,-0.0593 0.857099,-0.11164 0.25077,-0.0524 0.47401,-0.12403 0.705455,-0.25494 0.231445,-0.1309 0.47122,-0.32107 0.662736,-0.50845 0.191516,-0.18738 0.334836,-0.37204 0.4244,-0.5387 0.08956,-0.16667 0.125393,-0.31549 0.150204,-0.46705 0.02481,-0.15156 0.03858,-0.30591 0.06758,-0.39838 0.029,-0.0925 0.07303,-0.12273 0.122785,-0.12262 0.04976,1.1e-4 0.104868,0.0304 0.139155,0.13655 0.03429,0.10616 0.04805,0.28805 0.03148,0.54158 -0.01657,0.25354 -0.06342,0.57874 -0.13371,0.84465 -0.07029,0.2659 -0.164001,0.47262 -0.312779,0.65169 -0.148778,0.17907 -0.352725,0.33065 -0.636559,0.4781 -0.283833,0.14744 -0.647623,0.29075 -1.012772,0.39824 -0.365149,0.1075 -0.731704,0.17915 -1.129939,0.22326 -0.398236,0.0441 -0.828174,0.0606 -1.278781,0.0538 -0.450606,-0.007 -0.921892,-0.0372 -1.339452,-0.0496 -0.41756,-0.0124 -0.781357,-0.007 -1.085924,0.0165 -0.304568,0.0234 -0.549851,0.0647 -0.774528,0.13226 -0.224677,0.0675 -0.428616,0.16122 -0.591295,0.27839 -0.162678,0.11718 -0.283943,0.25773 -0.387313,0.39419 -0.103371,0.13645 -0.188798,0.26873 -0.256175,0.32936 -0.06738,0.0606 -0.116971,0.0496 -0.143232,0.0263 -0.02626,-0.0233 -0.02893,-0.0592 -0.03027,-0.0772 -0.0013,-0.0181 -0.0015,-0.0178 0.0095,-0.10723 z"
         id="path4202" /><circle
         style="opacity:1;fill:#e4b423;fill-opacity:1;stroke:none;stroke-width:1;stroke-linecap:round"
         id="path17616"
         cx="82.951935"
         cy="162.80937"
         r="0.60219169" /></g></g></svg>
